<?xml version="1.0"?><svg version="1.2" baseProfile="tiny-ps" viewBox="0 0 300 300" xmlns="http://www.w3.org/2000/svg" xmlns:xlink="http://www.w3.org/1999/xlink"><title>aquavault.co</title><g><g fill="#fff" transform="matrix(.1 0 0 -.1 0 300)"><path d="M0 1500V0h3000v3000H0V1500z"/></g><g fill="#d8d8d8" transform="matrix(.1 0 0 -.1 0 300)"><path d="m1499 2338-12-22 6-90 6-91 26-88c33-114 77-201 186-367l89-136 21-59 20-60-3-91-4-91-32-65-32-65-53-49c-30-27-79-70-109-96l-56-47-26-53-26-52v-66h105l68 24c192 68 314 222 348 437l11 70-12 71c-25 146-70 246-282 619-58 102-127 232-153 287l-48 102h-13c-7 0-19-10-25-22zm-151-270c-8-13-63-112-122-220-115-212-166-322-192-421l-17-62v-80l-1-80 14-55c7-30 28-86 47-124l35-70 57-56 56-56 48-22c26-13 52-20 56-18 5 3 11 29 14 57l6 52 33 54c37 61 89 118 170 185l56 48 28 55 27 56-5 67-5 67-21 40c-11 22-48 78-82 125-105 147-154 267-167 413-3 37-9 67-13 67s-14-10-22-22z"/></g><g fill="#a8a8a8" transform="matrix(.1 0 0 -.1 0 300)"><path d="m1500 2339-12-22 7-91 7-90 24-84c31-108 86-217 184-367 93-142 118-195 131-279l10-62-15-75-16-74-34-55-33-55-86-70c-48-38-95-82-107-97-30-39-60-109-60-142v-29l63 6 63 6 57 21c31 12 83 39 114 60l58 39 49 61 48 61 31 77 32 77-1 125v125l-33 90c-42 112-59 146-190 375-58 102-140 252-181 334s-80 151-87 153l-12 4-11-22zm-142-265c-26-30-231-411-270-504-20-47-44-113-52-146l-16-62v-164l16-62 15-61 35-62 35-62 48-50 48-49 51-26c28-14 53-26 56-26s8 21 12 47c10 65 25 98 78 170l45 62 64 50 64 50 25 38c34 52 48 97 48 152v46l-25 53c-13 29-53 94-88 145-111 159-152 258-165 402l-7 77-17-18z"/></g><g fill="#707070" transform="matrix(.1 0 0 -.1 0 300)"><path d="m1505 2336-16-23 10-104 10-104 25-78c35-106 79-190 177-337l82-125 24-58 24-59 6-61 5-62-16-64c-9-35-29-86-44-114l-27-50-55-46c-30-25-82-74-117-107l-62-62-16-56-16-56 7-11 6-11 55 7c124 15 229 70 315 163l51 57 28 60c16 33 35 87 44 120l15 59v133l-20 78-20 78-49 103c-27 56-97 187-157 290-59 104-138 251-176 327-37 75-70 137-73 137-2 0-12-11-20-24zm-183-323c-160-277-241-443-277-568l-25-87v-154l15-58c9-33 32-90 52-128l36-68 61-58 62-57 41-16 41-17 7 47 6 46 26 53 25 54 67 66c37 37 86 84 108 104l42 37 20 39c11 22 23 58 27 80l6 41-12 52-13 53-73 108c-95 139-128 198-154 278l-21 65-6 78-6 77h-8c-4 0-26-30-47-67z"/></g><g fill="#3d3d3d" transform="matrix(.1 0 0 -.1 0 300)"><path d="M1503 2334c-3-9-3-61 0-117l5-102 22-70c32-103 94-224 179-349 41-61 87-140 103-175l29-64 6-66 6-67-12-52c-6-28-21-73-33-99l-22-48-56-55c-31-30-80-76-110-101l-55-46-26-49c-15-27-29-63-32-81l-6-31 12-5c7-2 41 0 77 4l65 9 74 35 74 35 62 64 63 64 31 65c37 78 61 173 61 248v56l-20 78c-30 117-72 205-228 482-79 139-164 297-189 352l-46 101h-14c-8 0-16-7-20-16zm-171-306c-206-366-262-483-294-618l-20-85 5-80 6-80 21-59c26-76 63-138 114-194l41-44 50-29c27-16 55-29 61-29h11l7 48 6 49 35 59 36 59 108 105 109 105 17 59 17 59-11 55-11 54-22 37c-12 20-48 72-79 116-100 138-157 285-161 408l-2 57h-7c-4 0-21-24-37-52z"/></g><g fill="#010101" transform="matrix(.1 0 0 -.1 0 300)"><path d="m1504 2324-7-27 6-87 7-88 26-83c35-112 85-208 184-359l82-124 24-63 24-63v-146l-15-51-15-51-39-58-40-59-75-59c-104-81-156-154-156-221v-25h88l65 20 65 20 61 41 60 40 42 52c23 29 55 79 71 113l28 61 16 74 16 74-6 63-7 63-25 82c-32 100-84 206-214 432-54 95-130 236-169 314-39 77-76 141-81 141s-13-12-16-26zm-246-436c-166-299-215-418-233-561l-7-54 11-74 12-74 30-65c17-36 48-89 70-118l40-52 52-34c29-19 62-37 75-41l22-6v33c1 50 22 100 74 172l47 66 70 55 69 56 30 52 30 52v130l-21 45c-11 25-46 81-78 125-110 151-152 249-174 402l-12 84-107-193z"/></g></g></svg>